<svg width="1200" height="1447" viewBox="0 0 1200 1447" fill="none" xmlns="http://www.w3.org/2000/svg">
<g clip-path="url(#clip0_42_9)">
<g clip-path="url(#clip1_42_9)">
<path fill-rule="evenodd" clip-rule="evenodd" d="M198.555 -211.636C231.063 -146.524 252.546 -68.7188 227.031 -0.561015C202.433 65.1497 121.882 84.5139 70.007 131.758C16.4314 180.55 -10.0274 267.526 -81.3576 280.295C-153.093 293.137 -218.055 237.569 -276.284 193.75C-329.118 153.99 -365.594 100.736 -397.166 42.638C-432.15 -21.738 -483.775 -88.0139 -468.326 -159.634C-452.844 -231.401 -383.377 -278.028 -319.999 -315.086C-265.181 -347.139 -201.185 -346.263 -138.018 -352.769C-73.7965 -359.384 -8.61295 -378.259 50.9261 -353.293C115.398 -326.258 167.327 -274.185 198.555 -211.636Z" fill="#F7CF1C"/>
<path fill-rule="evenodd" clip-rule="evenodd" d="M226.095 -0.911591C251.46 -68.67 230.132 -146.15 197.66 -211.19C166.527 -273.548 114.767 -325.438 50.5394 -352.37C20.9777 -364.766 -10.0221 -366.296 -41.7139 -363.877C-57.5604 -362.667 -73.5604 -360.472 -89.6326 -358.163C-91.5738 -357.884 -93.5161 -357.603 -95.4593 -357.322C-109.595 -355.28 -123.779 -353.231 -137.916 -351.775C-149.405 -350.591 -160.895 -349.653 -172.34 -348.719C-192.445 -347.078 -212.411 -345.449 -231.991 -342.519C-262.672 -337.928 -292.237 -330.161 -319.494 -314.223C-351.174 -295.699 -384.304 -274.824 -411.443 -249.643C-438.578 -224.467 -459.665 -195.039 -467.348 -159.423C-475.008 -123.916 -466.057 -89.6772 -450.749 -56.1973C-440.977 -34.8242 -428.674 -13.8705 -416.491 6.87942C-409.554 18.6925 -402.657 30.4396 -396.287 42.1605C-364.743 100.208 -328.349 153.317 -275.683 192.951C-270.867 196.575 -266.008 200.277 -261.106 204.012C-236.332 222.887 -210.457 242.601 -183.406 257.393C-151.02 275.103 -117.086 285.675 -81.5338 279.311C-46.265 272.997 -22.017 248.337 0.184622 218.933C6.52661 210.533 12.6607 201.805 18.8343 193.021C23.491 186.395 28.1701 179.738 32.9778 173.165C44.12 157.932 55.8656 143.284 69.3337 131.018C88.1248 113.905 110.702 100.411 132.935 87.1223C141.489 82.0095 149.992 76.9271 158.21 71.6806C187.87 52.7439 213.915 31.6235 226.095 -0.911591ZM199.45 -212.083C231.994 -146.897 253.632 -68.7676 227.968 -0.210422C215.549 32.9652 189.02 54.3822 159.286 73.3663C150.957 78.6842 142.385 83.8077 133.791 88.9437C111.621 102.194 89.3126 115.528 70.6804 132.497C57.3606 144.628 45.708 159.149 34.592 174.346C29.8415 180.84 25.1727 187.482 20.5136 194.11C14.309 202.937 8.12153 211.74 1.78073 220.138C-20.4735 249.612 -45.12 274.824 -81.1814 281.28C-117.365 287.757 -151.779 276.967 -184.365 259.148C-211.562 244.276 -237.58 224.452 -262.353 205.577C-267.246 201.849 -272.09 198.157 -276.886 194.549C-329.886 154.664 -366.445 101.264 -398.045 43.1155C-404.345 31.5218 -411.209 19.83 -418.131 8.03881C-430.355 -12.7836 -442.761 -33.916 -452.568 -55.3657C-467.957 -89.0228 -477.093 -123.732 -469.303 -159.845C-461.505 -195.997 -440.118 -225.766 -412.804 -251.109C-385.494 -276.448 -352.202 -297.415 -320.503 -315.95C-292.943 -332.065 -263.101 -339.886 -232.287 -344.497C-212.652 -347.435 -192.554 -349.076 -172.395 -350.722C-160.966 -351.655 -149.516 -352.59 -138.121 -353.764C-124.027 -355.216 -109.887 -357.259 -95.7467 -359.302C-93.8034 -359.582 -91.8602 -359.863 -89.9171 -360.142C-73.8444 -362.452 -57.7857 -364.656 -41.8661 -365.871C-10.026 -368.301 21.3355 -366.785 51.3129 -354.215C116.029 -327.078 168.127 -274.822 199.45 -212.083Z" fill="#050C10"/>
<path d="M269 24C269 51.6142 246.614 74 219 74C191.386 74 169 51.6142 169 24C169 -3.61424 191.386 -26 219 -26C246.614 -26 269 -3.61424 269 24Z" fill="#BFCDF8"/>
<path fill-rule="evenodd" clip-rule="evenodd" d="M219 72C245.51 72 267 50.5097 267 24C267 -2.50967 245.51 -24 219 -24C192.49 -24 171 -2.50967 171 24C171 50.5097 192.49 72 219 72ZM219 74C246.614 74 269 51.6142 269 24C269 -3.61424 246.614 -26 219 -26C191.386 -26 169 -3.61424 169 24C169 51.6142 191.386 74 219 74Z" fill="#050C10"/>
</g>
<g clip-path="url(#clip2_42_9)">
<path d="M1717.64 632.454C1715.98 559.269 1666.85 494.782 1612.41 446.366C1560 399.767 1492.21 370.623 1422.05 369.489C1389.55 368.963 1359.87 379.214 1331.21 393.306C1316.89 400.352 1302.8 408.368 1288.74 416.487C1287.04 417.469 1285.34 418.452 1283.64 419.435C1271.27 426.588 1258.9 433.741 1246.36 440.328C1236.21 445.654 1225.93 450.778 1215.67 455.893C1197.57 464.915 1179.52 473.91 1162.38 483.937C1135.49 499.672 1110.7 518.026 1091.1 543.231C1068.57 572.222 1045.45 604.062 1029.52 637.737C1013.59 671.418 1004.8 707.004 1011 743.464C1017.19 779.885 1038.57 808.71 1065.37 834.235C1082.45 850.502 1101.82 865.508 1120.91 880.294C1131.72 888.667 1142.44 896.969 1152.6 905.39C1203.55 947.624 1257.34 983.607 1321.37 1000.93C1327.16 1002.5 1333.03 1004.12 1338.96 1005.77C1368.97 1014.08 1400.5 1022.81 1431.27 1026.51C1468.15 1030.94 1504.11 1028.16 1535.29 1008.69C1566.37 989.296 1579.87 956.729 1589.58 921.094C1592.34 910.941 1594.81 900.469 1597.29 889.968C1599.15 882.083 1601.02 874.181 1603.01 866.386C1607.68 848.146 1613.1 830.334 1620.96 814.121C1631.95 791.442 1647.7 770.771 1663.36 750.228C1669.42 742.266 1675.48 734.323 1681.23 726.289C1701.78 697.613 1718.45 667.868 1717.64 632.454Z" fill="#D19DFF" stroke="#050C10" stroke-width="2"/>
</g>
<g clip-path="url(#clip3_42_9)">
<path fill-rule="evenodd" clip-rule="evenodd" d="M-116.692 1616.25C-121.294 1547.12 -80.1966 1482.78 -28.2443 1436.95C16.234 1397.71 77.784 1395.26 137.029 1392.4C191.521 1389.77 242.296 1398.48 291.754 1421.5C364.454 1455.35 458.469 1476.45 482.136 1553.07C507.363 1634.74 455.161 1718.26 404.738 1787.28C351.09 1860.72 286.34 1945.39 195.394 1945.57C107.115 1945.75 55.8557 1852.18 -4.86834 1788.1C-53.7387 1736.53 -111.973 1687.14 -116.692 1616.25Z" fill="#597CEB"/>
</g>
</g>
<defs>
<clipPath id="clip0_42_9">
<rect width="1200" height="1447" fill="white"/>
</clipPath>
<clipPath id="clip1_42_9">
<rect width="269" height="234" fill="white"/>
</clipPath>
<clipPath id="clip2_42_9">
<rect width="193" height="488" fill="white" transform="translate(1007 457)"/>
</clipPath>
<clipPath id="clip3_42_9">
<rect width="369" height="57" fill="white" transform="translate(0 1390)"/>
</clipPath>
</defs>
</svg>
